<svg xmlns="http://www.w3.org/2000/svg" viewBox="0 0 207.74552 77.94992">
  <path d="M28.047 21.375c-.953-.469-1.813-.656-2.891-.656-5.312 0-5.765 6.203-5.765 10.203 0 3.859.609 9.875 5.734 9.875 1.078 0 2-.235 2.922-.781v-3.344c-.578.422-1.031.734-1.844.734-3.047 0-3.125-4.859-3.125-6.828 0-2.078.078-6.437 3.203-6.469.813.032 1.313.344 1.688.922h.078Zm0 0"/>
  <path d="M34.289 21.031H30.68v19.453h3.656v-12.25c0-2.468.844-3.968 3.547-3.968l.609.031v-3.578c-2 0-3.281 1-4.125 2.703h-.078Zm0 0"/>
  <path d="M44.156 28.891c0-1.5-.156-4.938 2.125-4.938 2.188 0 2.188 3.438 2.188 4.938Zm8.016 2.578v-.578c0-4-.61-10.172-5.891-10.172-5.359 0-5.812 6.203-5.812 10.172 0 4.125.5 9.906 5.922 9.906 4.093 0 5.671-3.281 5.671-6.859h-3.359c0 1.5-.344 3.624-2.265 3.624-2.36 0-2.282-4.468-2.282-6.093Zm0 0"/>
  <path d="M62.266 21.562c-1.047-.609-2.047-.843-3.282-.843-3.078 0-5.187 2.234-5.187 5.312 0 5.391 6.078 5.625 6.078 9.063 0 1.5-.844 2.468-2.422 2.468-1.234 0-2.078-.5-3.015-1.234v3.547c1.078.641 1.89.922 3.171.922 3.469 0 5.579-2.359 5.579-5.781 0-5.547-6-5.704-6.079-8.985 0-1.312 1.11-2.078 2.453-2.078.891 0 2.016.422 2.704 1.047Zm0 0"/>
  <path d="M73.668 21.375c-.953-.469-1.813-.656-2.891-.656-5.312 0-5.765 6.203-5.765 10.203 0 3.859.609 9.875 5.734 9.875 1.078 0 2-.235 2.922-.781v-3.344c-.578.422-1.031.734-1.844.734-3.047 0-3.125-4.859-3.125-6.828 0-2.078.078-6.437 3.203-6.469.813.032 1.313.344 1.688.922h.078Zm0 0"/>
  <path d="M79.41 28.891c0-1.5-.156-4.938 2.125-4.938 2.188 0 2.188 3.438 2.188 4.938Zm8.016 2.578v-.578c0-4-.61-10.172-5.891-10.172-5.359 0-5.812 6.203-5.812 10.172 0 4.125.5 9.906 5.922 9.906 4.093 0 5.671-3.281 5.671-6.859h-3.359c0 1.5-.344 3.624-2.266 3.624-2.359 0-2.281-4.468-2.281-6.093Zm0 0"/>
  <path d="M93.82 21.031h-3.609v19.453h3.609v-12.14c0-1.656-.187-4.391 2.203-4.391 1.922 0 2.157 1.735 2.157 3.078v13.453h3.625V27.109c0-2.968-.125-6.39-3.969-6.39-.969 0-1.734.234-2.391.687-.625.422-1.125 1.047-1.547 1.86h-.078Zm0 0"/>
  <path d="M112.816 40.484h3.625V8.5h-3.625v14.688h-.078c-.734-1.469-1.609-2.469-3.468-2.469-4.579 0-4.688 6.547-4.688 9.781 0 3.172.063 10.297 4.578 10.297 2.047 0 2.844-1.125 3.578-2.813h.078Zm-2.156-2.922c-2.687 0-2.39-5.203-2.39-6.828 0-1.578-.297-6.781 2.39-6.781 2.438 0 2.281 5.235 2.281 6.781 0 1.547.157 6.828-2.281 6.828Zm0 0"/>
  <path d="M125.352 40.797c5.546 0 6.125-5.906 6.125-9.985 0-4.234-.579-10.093-6.125-10.093-5.547 0-6.125 5.859-6.125 10.093 0 4.079.578 9.985 6.125 9.985Zm0-3.313c-2.782 0-2.438-5.281-2.438-6.672 0-1.546-.344-6.781 2.438-6.781 2.765 0 2.421 5.235 2.421 6.781 0 1.391.344 6.672-2.421 6.672Zm0 0"/>
  <path d="M9.391 47.34h-.735v6.687h.735Zm-.36-2.141c-.297 0-.531.235-.531.516 0 .297.234.515.531.515.281 0 .516-.218.516-.515 0-.281-.235-.516-.516-.516Zm0 0"/>
  <path d="M12.449 47.34h-.734v2.469c0 1.14.422 1.937 1.703 1.937 1.266 0 1.687-.797 1.687-1.937V47.34h-.734v2.39c0 .719-.078 1.329-.953 1.329-.891 0-.969-.61-.969-1.329Zm0 0"/>
  <path d="M19.02 47.887c.906 0 1.453.703 1.453 1.547 0 .875-.5 1.625-1.438 1.625-.906 0-1.406-.782-1.406-1.625 0-.813.547-1.547 1.391-1.547Zm2.14-.547h-.734v.609h-.016c-.344-.469-.859-.734-1.453-.734-1.281 0-2.078 1.078-2.078 2.281 0 1.188.797 2.25 2.047 2.25.578 0 1.14-.266 1.484-.719h.016v.516c0 .969-.235 1.797-1.375 1.797-.781 0-1.36-.5-1.375-1.297h-.719c.031 1.219.906 1.969 2.109 1.969.641 0 1.25-.25 1.657-.75.437-.578.437-1.172.437-1.844Zm0 0"/>
  <path d="M27.164 49.637c.078-1.282-.656-2.422-2.031-2.422-1.344 0-2.078 1.047-2.078 2.312 0 1.235.812 2.219 2.093 2.219.875 0 1.579-.437 1.985-1.203l-.625-.359c-.281.5-.688.875-1.297.875-.828 0-1.406-.641-1.406-1.422Zm-3.328-.625c.094-.625.672-1.125 1.312-1.125.625 0 1.157.5 1.25 1.125Zm0 0"/>
  <path d="M29.754 47.34h-.734v4.281h.734V49.59c0-.766.062-1.703 1.062-1.703.86 0 .907.625.907 1.312v2.422h.734v-2.547c0-1-.281-1.859-1.453-1.859-.531 0-.922.234-1.234.64h-.016Zm0 0"/>
  <path d="M36.469 47.887c.906 0 1.453.703 1.453 1.547 0 .875-.5 1.625-1.438 1.625-.922 0-1.406-.782-1.406-1.625 0-.813.547-1.547 1.391-1.547Zm1.406 3.734h.734V44.09h-.734v3.859h-.016c-.343-.469-.89-.734-1.468-.734-1.282 0-2.063 1.047-2.063 2.265 0 1.188.797 2.266 2.047 2.266.594 0 1.125-.25 1.484-.719h.016Zm0 0"/>
  <path d="M134.457 57.684c1.25 0 2.25-1 2.25-2.266 0-1.25-.984-2.266-2.25-2.266-1.25 0-2.25 1.016-2.25 2.266 0 1.266 1 2.266 2.25 2.266Zm0-3.86c.906 0 1.531.719 1.531 1.594 0 .875-.625 1.578-1.531 1.578-.906 0-1.516-.703-1.516-1.578 0-.875.61-1.594 1.516-1.594Zm0 0"/>
  <path d="M139.266 53.277h-.735v4.282h.735v-2.141c0-.563.031-1.594.828-1.594.203 0 .297.094.453.188l.344-.657c-.219-.125-.422-.203-.657-.203-.484 0-.703.25-.953.578h-.015Zm0 0"/>
  <path d="M145.66 53.574c-.375-.265-.859-.422-1.312-.422-1.266 0-2.297.985-2.297 2.266 0 1.297.984 2.266 2.281 2.266.516 0 .938-.157 1.359-.438v-.984h-.015c-.36.468-.781.734-1.406.734-.891 0-1.469-.734-1.469-1.578 0-.859.625-1.594 1.515-1.594.579 0 .985.297 1.329.719h.015Zm0 0"/>
  <path d="M147.668 50.027v7.532h.734v-2.032c0-.765.063-1.703 1.063-1.703.859 0 .906.625.906 1.313v2.422h.734v-2.547c0-1-.281-1.86-1.453-1.86-.531 0-.922.235-1.234.641l-.016-.016v-3.75Zm0 0"/>
  <path d="M157.074 55.574c.078-1.281-.656-2.422-2.031-2.422-1.344 0-2.078 1.047-2.078 2.313 0 1.234.812 2.219 2.094 2.219.875 0 1.578-.438 1.984-1.204l-.625-.359c-.281.5-.688.875-1.297.875-.828 0-1.406-.641-1.406-1.422Zm-3.328-.625c.094-.625.672-1.125 1.313-1.125.625 0 1.156.5 1.25 1.125Zm0 0"/>
  <path d="M161.27 53.949c-.188-.453-.641-.797-1.141-.797-.688 0-1.266.485-1.266 1.219 0 1.344 1.938 1.016 1.938 1.969 0 .39-.313.656-.703.656-.485 0-.688-.281-.875-.672l-.641.266c.219.672.781 1.094 1.516 1.094.781 0 1.437-.594 1.437-1.407 0-.718-.484-1.015-.984-1.234-.5-.203-1-.344-1-.734 0-.282.281-.485.531-.485.266 0 .484.219.578.438Zm0 0"/>
  <path d="M164.188 53.949h.765v-.672h-.765V51.73h-.719v1.547h-.453v.672h.453v3.61h.719Zm0 0"/>
  <path d="M170.199 55.574c.078-1.281-.656-2.422-2.031-2.422-1.344 0-2.078 1.047-2.078 2.313 0 1.234.812 2.219 2.094 2.219.875 0 1.578-.438 1.984-1.204l-.625-.359c-.281.5-.688.875-1.297.875-.828 0-1.406-.641-1.406-1.422Zm-3.328-.625c.094-.625.672-1.125 1.313-1.125.625 0 1.156.5 1.25 1.125Zm0 0"/>
  <path d="M172.754 53.277h-.734v4.282h.734v-2.141c0-.563.031-1.594.828-1.594.203 0 .297.094.453.188l.344-.657c-.219-.125-.422-.203-.656-.203-.485 0-.703.25-.953.578h-.016Zm0 0"/>
  <path d="M47.289 58.793c.516.672.719 1.187.719 1.859 0 .953-1 2.141-2.703 2.141-.86 0-1.453-.281-1.453-1.109 0-.407.25-.75.25-1.157 0-.312-.313-.578-.61-.578-.812 0-1.359.422-1.359 1.188 0 1.297 1.515 2.031 3.094 2.031 1.781 0 4.39-1.219 4.39-3.547 0-.594-.125-1.172-.547-1.687l-1.515-1.985c-.625-.828-.985-1.375-.985-2.047 0-1.062.75-2.156 2.407-2.156.593 0 .875.266.875.672 0 .344-.344.5-.344.969 0 .515.422.797.906.797.672 0 1.063-.391 1.063-1.094 0-.985-.954-1.703-2.407-1.703-2.406 0-4.109 1.859-4.109 3.468 0 .938.516 1.547 1.031 2.219Zm0 0"/>
  <path d="M53.238 59.668c-.203.562-.468 1.344-.468 1.937 0 1.094.734 1.563 1.859 1.563 2.109 0 2.953-2.031 3.234-2.563l-.297-.14c-.265.594-1.328 2.328-2.468 2.328-.485 0-.719-.328-.719-.75 0-.453.203-1.031.391-1.547l3.046-8.766h-4.109l-.109.36h2.312Zm4.266-14.047c0 .672.547 1.219 1.219 1.219s1.218-.547 1.218-1.219-.546-1.219-1.218-1.219c-.672 0-1.219.547-1.219 1.219Zm0 0"/>
  <path d="M59.492 62.824h1.813l1.937-5.406c1.125-3.109 3.781-5.484 5.313-5.484.75 0 1.015.515 1.015.953 0 .312-.062.593-.218 1.031l-2.172 6.187c-.172.547-.313 1.032-.313 1.485 0 1.109.86 1.578 1.969 1.578 2.016 0 2.844-1.891 3.187-2.563l-.281-.14c-.375.781-1.265 2.328-2.484 2.328-.547 0-.672-.406-.672-.828 0-.531.203-1.141.406-1.703l1.688-4.782c.281-.781.484-1.296.484-1.89 0-1.141-.922-2.016-2.344-2.016-1.437 0-3.093 1.141-4.75 3.328h-.047l1.063-3.172h-4.094l-.094.36h2.344Zm0 0"/>
  <path d="m74.965 51.73-.094.36h2.453L74.48 62.777c-1.187 4.422-2.562 6.313-4.015 6.313-.438 0-.766-.203-.766-.656 0-.485.25-.844.25-1.235 0-.547-.312-.672-.75-.672-.828 0-1.219.563-1.219 1.219 0 1.359 1.25 1.703 2.125 1.703 3.047 0 5.532-4.094 6.735-8.594l2.297-8.765h3.187l.094-.36h-3.172l.531-1.968c.5-1.735 2.032-6.235 5.125-6.235.516 0 .985.157.985.719 0 .547-.625.781-.625 1.5 0 .391.312.719 1.062.719.891 0 1.172-.719 1.172-1.313 0-.828-.75-2-2.516-2-2.968 0-6.078 3.157-7.156 7.141l-.39 1.437Zm0 0"/>
  <path d="M82.113 58.762c0 2.297 1.578 4.406 4.032 4.406 2.921 0 6.765-3.422 6.765-7.375 0-1.922-1.25-4.406-3.969-4.406-3.031 0-6.828 3.203-6.828 7.375Zm1.703 1.453c0-2.719 1.938-8.469 5-8.469 1.704 0 2.375 1.063 2.375 2.688 0 2.125-1.859 8.359-5.125 8.359-1.312 0-2.25-.828-2.25-2.578Zm0 0"/>
  <path d="M94.449 62.824h1.813l1.937-5.406c1.125-3.109 3.781-5.484 5.313-5.484.75 0 1.015.515 1.015.953 0 .312-.062.593-.218 1.031l-2.172 6.187c-.172.547-.313 1.032-.313 1.485 0 1.109.86 1.578 1.969 1.578 2.016 0 2.844-1.891 3.187-2.563l-.281-.14c-.375.781-1.265 2.328-2.484 2.328-.547 0-.672-.406-.672-.828 0-.531.203-1.141.406-1.703l1.688-4.782c.281-.781.484-1.296.484-1.89 0-1.141-.922-2.016-2.344-2.016-1.437 0-3.093 1.141-4.75 3.328h-.047l1.063-3.172h-4.094l-.094.36h2.344Zm0 0"/>
  <path d="M109.281 59.668c-.203.562-.469 1.344-.469 1.937 0 1.094.735 1.563 1.86 1.563 2.109 0 2.953-2.031 3.234-2.563l-.297-.14c-.265.594-1.328 2.328-2.468 2.328-.485 0-.719-.328-.719-.75 0-.453.203-1.031.39-1.547l3.047-8.766h-4.109l-.109.36h2.312Zm4.266-14.047c0 .672.547 1.219 1.219 1.219s1.218-.547 1.218-1.219-.546-1.219-1.218-1.219c-.672 0-1.219.547-1.219 1.219Zm0 0"/>
  <path d="M123.973 60.105c-.516.704-1.735 2.688-3.907 2.688-1.468 0-2.562-.906-2.562-2.766 0-1.187.312-2.281.672-3.359.422.078.984.094 1.578.094 1.062 0 6.078-.641 6.078-3.438 0-1.344-1.5-1.937-2.891-1.937-3.578 0-7.25 4.422-7.25 7.859 0 1.688 1.094 3.922 4.047 3.922 2.938 0 4.188-2.391 4.547-2.875Zm.265-7.109c0 1.813-2.156 3.406-4.609 3.406-.469 0-.875-.047-1.313-.093.61-1.797 2.375-4.563 4.579-4.563.953 0 1.343.578 1.343 1.25Zm0 0"/>
  <path d="M113.551 45.629c0 .672.547 1.219 1.219 1.219.671 0 1.218-.547 1.218-1.219s-.547-1.219-1.218-1.219c-.672 0-1.219.547-1.219 1.219Zm0 0"/>
  <path d="M121.121 45.629c0 .672.547 1.219 1.219 1.219s1.219-.547 1.219-1.219-.547-1.219-1.219-1.219-1.219.547-1.219 1.219Zm0 0"/>
  <path d="M128.691 45.629c0 .672.547 1.219 1.219 1.219s1.219-.547 1.219-1.219-.547-1.219-1.219-1.219-1.219.547-1.219 1.219Zm0 0"/>
  <path d="M136.258 45.629c0 .672.547 1.219 1.219 1.219.671 0 1.218-.547 1.218-1.219s-.547-1.219-1.218-1.219c-.672 0-1.219.547-1.219 1.219Zm0 0"/>
  <path d="M143.828 45.629c0 .672.547 1.219 1.219 1.219s1.219-.547 1.219-1.219-.547-1.219-1.219-1.219-1.219.547-1.219 1.219Zm0 0"/>
  <path d="M151.398 45.629c0 .672.547 1.219 1.219 1.219s1.219-.547 1.219-1.219-.547-1.219-1.219-1.219-1.219.547-1.219 1.219Zm0 0"/>
  <path d="M158.965 45.629c0 .672.547 1.219 1.219 1.219.671 0 1.218-.547 1.218-1.219s-.547-1.219-1.218-1.219c-.672 0-1.219.547-1.219 1.219Zm0 0"/>
  <path d="M166.535 45.629c0 .672.547 1.219 1.219 1.219s1.219-.547 1.219-1.219-.547-1.219-1.219-1.219-1.219.547-1.219 1.219Zm0 0"/>
  <path d="M174.102 45.629c0 .672.546 1.219 1.218 1.219.672 0 1.219-.547 1.219-1.219s-.547-1.219-1.219-1.219-1.218.547-1.218 1.219Zm0 0"/>
  <path d="M181.672 45.629c0 .672.547 1.219 1.219 1.219.671 0 1.218-.547 1.218-1.219s-.547-1.219-1.218-1.219c-.672 0-1.219.547-1.219 1.219Zm0 0"/>
  <path d="M189.242 45.629c0 .672.547 1.219 1.219 1.219s1.219-.547 1.219-1.219-.547-1.219-1.219-1.219-1.219.547-1.219 1.219Zm0 0"/>
  <path d="M196.809 45.629c0 .672.546 1.219 1.218 1.219.672 0 1.219-.547 1.219-1.219s-.547-1.219-1.219-1.219-1.218.547-1.218 1.219Zm0 0"/>
</svg>