<svg xmlns="http://www.w3.org/2000/svg" version="1.0" viewBox="0 0 1350 448">
  <path d="M690 89.5c0 30.3-.3 46.5-1 46.5-.5 0-1-.4-1-.8 0-2-7.7-9.6-11.4-11.3-10-4.5-23.7-1-29.7 7.7-8.1 11.9-12 38.1-9.9 68.4 1.9 28.6 6.9 42.3 17.7 48.7 4 2.3 5.9 2.7 11.8 2.7 9.8 0 14.6-3 20.2-12.4.9-1.7 2.1-3 2.5-3 .4 0 .8 3.1.8 7v7h23V43h-23v46.5zm-10.6 53.9c7.9 3.3 10.8 14.6 10.9 42.1.1 26.7-2 37.5-8.3 42.9-4.7 3.9-10.3 3.6-14.4-.8-1.8-1.8-3.7-5.1-4.4-7.3-2.2-7.5-3.5-25.4-2.9-41.8.9-23.1 3.3-31 10.8-34.7 4.1-2.2 4.1-2.2 8.3-.4zM184 123c-5.3 1.8-11.7 7.3-16.2 14-1.7 2.4-1.7 2.3-1.7-5.3l-.1-7.7h-23v126h22.9l.3-44.8c.3-40.4.5-45.1 2.1-48.7 1-2.1 2.5-4.8 3.5-5.9 2.9-3.2 9.3-5.6 15.5-5.6h5.7v-12c0-13.7.4-13.3-9-10zm137.4-1.1c-14.6 3.8-23.3 14.7-24.2 30.5-1 16.3 2.5 22.9 20.4 38.1 15.9 13.6 17.7 16 18.2 23.8.6 11-4.8 16.7-15.9 16.7-4.4 0-7.1-.7-12.3-3.3l-6.7-3.4.3 11.1.3 11.1 6 2.4c7.9 3.3 20.4 3.4 28.1.4 14.6-5.7 22.1-18.9 21.2-37.3-.6-12.3-3.4-17.7-14.6-27.7-23.7-21.4-26.1-25.1-22.3-33.8 2.7-6.1 6.9-8.5 14.6-8.5 4.3 0 7.5.7 11.3 2.5l5.3 2.4-.3-10.6-.3-10.5-5-2c-5.5-2.2-18.9-3.3-24.1-1.9zm-228.5 1.7c-2.7.8-6.8 3.3-9.8 6-11.9 10.7-16.9 31.2-15.8 64.3.8 23.2 3.9 35.7 11.5 45.6 9 11.9 25.2 15.6 40.6 9.1l3.6-1.5V226l-4.2 2.1c-3.1 1.6-5.3 2-9 1.7-12.1-1.2-17.8-15.3-17.8-44.2 0-20.8 4.1-35.3 11.3-39.6 4.9-3 12.7-2.7 16.7.6l3.1 2.6-.3-11.8-.3-11.8-5.5-1.8c-6.7-2-17.8-2.2-24.1-.2zm138.8.1c-6 2-13.4 8.6-16.9 15-6.3 11.5-9.4 31.8-8.5 55.8.7 18 2.7 28.5 7.3 38.2 6.3 13.2 15.7 18.9 31.4 18.7 9.3 0 16.4-2.5 22.6-7.7 5.9-5 11.1-17.8 12.8-31l.6-4.7h-21.8l-.4 6.2c-.7 11.2-5.9 17.8-13.8 17.8-9.9 0-14.8-9.4-16.5-31.8l-.8-9.2H282v-2.3c-.1-6.9-2.2-26.7-3.6-33-3.7-16.6-12.8-28.9-23.7-32.2-6.5-1.9-16.9-1.8-23 .2zm19.5 21.2c3.6 4 6.7 16.4 6.8 26.9v3.3l-14.7-.3-14.8-.3.3-5c.5-7.4 2.1-16.3 3.9-20.8 3.3-8.1 12.9-10.1 18.5-3.8zm144.9-20.8c-10.5 4.2-17.9 14.7-21.5 30.6-2.7 12.2-3.8 31.1-2.6 45.8 2.5 32.4 12.8 48.4 32.6 51 5.4.8 15.1-.8 19.7-3.1 2.7-1.4 2.7-1.5 2.7-11.8v-10.4l-3.7 1.9c-5.1 2.6-11.2 2.5-15.3-.4-7.7-5.1-11.3-18.4-11.3-41.7 0-21.8 3-33.2 10.3-39.4 4-3.3 11.8-3.6 16.8-.6l3.2 2v-22.1l-3.7-1.6c-2.3-1-7.4-1.8-12.8-2-7.4-.3-10 .1-14.4 1.8zm72.6-.4c-18.1 6-27 31.2-25.3 70.8 1.5 35.9 9.5 51.4 29 56.2 5.7 1.4 8.1 1.5 14.1.6 18.5-2.7 27.7-14 31-38.6l.6-4.7h-21l-.6 3.7c-.3 2.1-.8 5-1 6.5-1.3 8.3-6.6 13.8-13.3 13.8-10.1 0-14.9-9.2-16.7-32.3l-.7-8.7H519v-3.3c0-8.3-2.3-27.4-4-34.3-3.8-14.9-12.5-26.4-22.7-29.8-5.9-2-17.3-2-23.6.1zm18.5 20c1.1 1 2.7 3.1 3.5 4.7 1.8 3.4 4.2 16.2 4.3 22.4v4.3l-14.7-.3-14.8-.3.3-5c.9-14.2 4-23.7 8.6-26.7 3.7-2.3 9.7-1.9 12.8.9zm91.8-20.1c-5 2.1-9.7 6-13.1 10.7l-2.9 4V124h-23v126h23v-46.3c0-51.7.3-54.2 6.2-59.2 2.9-2.4 3.8-2.7 9.2-2.3 6.7.5 9.7 2.9 11.5 9.6.7 2.3 1.1 21.3 1.1 50.9V250h23.1l-.4-54.8c-.2-44.4-.6-55.5-1.7-58.7-2-5.3-8.5-11.7-13.6-13.3-5.6-1.6-15.1-1.5-19.4.4zm185-.7c-12.6 4.1-21.2 14.5-25.4 30.6-3.4 13.4-4.5 35.4-2.6 51.5 2.9 23.9 9.7 36.8 22.7 43.2 6.1 3 7.5 3.3 15.8 3.3s9.7-.3 15.8-3.3c7.5-3.7 12.3-8.8 16.1-17.3 5.6-12.2 8.2-30.9 7.2-51.4-1.5-30.7-9.1-48.3-23.5-54.8-5-2.3-21.3-3.4-26.1-1.8zm15.3 20.5c7.2 3 9.7 11.4 10.4 36.1.9 27.7-1.5 42.5-7.8 48.3-3.6 3.4-11.2 3.1-14.9-.6-5.1-5.1-6.2-11.2-6.8-36.1-.6-31.6 1.5-42.5 9.1-47.1 3.8-2.4 5.7-2.5 10-.6zM201 286.5c0 6.9-.3 12.5-.6 12.5s-1.7-.9-3.1-2c-3.3-2.6-8.8-2.6-13 0-8.3 5-9.2 18.4-1.6 25 2.7 2.4 4.3 3 8.1 3 2.7 0 5.7-.7 6.8-1.5 2.5-1.9 3.4-1.9 3.4 0 0 1 1 1.5 3 1.5h3v-51h-6v12.5zm-2.2 17.1c2.9 3.3 3 10.1.2 13.2-5.8 6.2-15 2.4-15-6.3 0-9.3 8.9-13.5 14.8-6.9zM493 275.7c-14.8 5.1-27.7 20.8-34.5 41.9l-3.7 11.4h-7.9c-4.6 0-7.9.4-7.9 1s3.2 1 7.5 1c4.1 0 7.5.4 7.5.9 0 2.3-21 79.1-23 84.1-6.2 15.8-13 24-19.9 24-5.6 0-6.8-1.8-5.2-8.1 1.5-5.8.5-7.9-3.9-7.9-4.3 0-7.2 2.9-7.2 7.2 0 7.1 4.4 10.8 13 10.8 15.6 0 30.8-17.2 40.2-45.3 1.2-3.8 5.7-20.2 10-36.5l7.7-29.7 10.9-.6 10.9-.5-10.2-.2c-8.6-.2-10.3-.5-10.3-1.8 0-3.8 5.5-20.7 9.5-28.9 6.9-14.4 14.4-21.5 24.4-23.1 3-.5 4.8-.2 6.6 1 3 2 3.1 4.1.5 8.1-3.8 5.7-2.1 9.5 4 9.5 4.8 0 7.3-2.7 7.3-7.8 0-7.8-5.9-12.2-16-12.2-3.2.1-7.8.8-10.3 1.7zM5.3 279.6c-.7.3-1.3 1.6-1.3 2.9 0 4.4 5 6 7.4 2.2 2-3.2-2.2-6.7-6.1-5.1zM322 284c-4.1 4.1-1.5 11.4 4.5 12.6 6.6 1.2 11-6.6 6.9-12.4-2-2.9-8.5-3.1-11.4-.2zm375.7-.2c-2.7 3-2.2 8.7.9 11.1 1.5 1.2 3.7 2.1 4.9 2.1 3.7 0 7.5-3.7 7.5-7.4 0-5.1-2.4-7.6-7.4-7.6-2.9 0-4.8.6-5.9 1.8zm49.9-.2c-4.3 4.2-2.5 11.1 3.2 12.8 2.7.7 3.8.6 6-1.1 3.4-2.5 4.2-8.5 1.6-11.4-2.1-2.4-8.6-2.6-10.8-.3zm49 .6c-3.6 5 .1 12.8 5.9 12.8 6.1 0 9.8-8.7 5.5-13-2.9-2.9-9.4-2.7-11.4.2zm50.1-.4c-2.7 3-2.2 8.7 1 11.2 3 2.3 7.6 2.2 10-.3 2.5-2.4 2.6-7 .3-10-2.6-3.3-8.7-3.8-11.3-.9zm49.9-.2c-4.3 4.2-2.5 11.1 3.2 12.8 2.7.7 3.8.6 6-1.1 3.4-2.5 4.2-8.5 1.6-11.4-2.1-2.4-8.6-2.6-10.8-.3zm49 .6c-3.6 5 .1 12.8 5.9 12.8 6.1 0 9.8-8.7 5.5-13-2.9-2.9-9.4-2.7-11.4.2zm50.1-.4c-2.7 3-2.2 8.7 1 11.2 3 2.3 7.6 2.2 10-.3 2.5-2.4 2.6-7 .3-10-2.6-3.3-8.7-3.8-11.3-.9zm49.9-.2c-4.3 4.2-2.5 11.1 3.2 12.8 2.7.7 3.8.6 6-1.1 3.4-2.5 4.2-8.5 1.6-11.4-2.1-2.4-8.6-2.6-10.8-.3zm49 .6c-3.6 5 .1 12.8 5.9 12.8 6.1 0 9.8-8.7 5.5-13-2.9-2.9-9.4-2.7-11.4.2zm50.1-.4c-2.7 3-2.2 8.7 1 11.2 3 2.3 7.6 2.2 10-.3 2.5-2.4 2.6-7 .3-10-2.6-3.3-8.7-3.8-11.3-.9zm49.9-.2c-4.3 4.2-2.5 11.1 3.2 12.8 2.7.7 3.8.6 6-1.1 3.4-2.5 4.2-8.5 1.6-11.4-2.1-2.4-8.6-2.6-10.8-.3zm49 .6c-3.6 5 .1 12.8 5.9 12.8 6.1 0 9.8-8.7 5.5-13-2.9-2.9-9.4-2.7-11.4.2zM68.5 296c-4.7 1.9-8.5 8.4-8.5 14.3.1 4.9 3.4 11.4 6.9 13.1 3.8 2 10.1 2.1 12.7.1 1-.8 2.2-1.5 2.7-1.5 1.4 0 .7 8.5-.9 10.8C78.5 337 68 335 68 330.2c0-.7-1.3-1.2-3-1.2-4.1 0-4 3.2.3 7.5 7.9 7.9 21.3 4.5 23.8-6.2.5-2.1.9-10.7.9-19.1V296h-3.5c-2.5 0-3.5.4-3.5 1.6 0 1.3-.5 1.2-2.6-.5-2.8-2.2-8.2-2.7-11.9-1.1zm10.4 5.5c8.2 4.2 5.2 18.5-3.8 18.5-8.8 0-12.1-14.2-4.3-18.5 3.4-1.8 4.7-1.8 8.1 0zm30.5-5.5c-3.3 1.3-7.2 6.6-7.9 10.9-.7 4.1.7 10.5 2.8 13.1 5.6 7.1 19.7 6.5 23.7-1 .9-1.7.7-2.2-1.3-3.1-2.1-.9-2.8-.7-5 1.5-3.4 3.4-7.9 3.5-11.2.1-1.4-1.3-2.5-3.3-2.5-4.5 0-1.9.6-2 10.5-2H129v-2.5c0-4.3-2.7-9.4-6.2-11.5-3.4-2.1-9.6-2.6-13.4-1zm11.8 7.1c1 1.2 1.5 2.5 1.2 3-.6 1-14.4 1.3-14.4.3 0-.3.5-1.4 1.1-2.5 2.2-4.2 8.9-4.6 12.1-.8zm28.6-6.5c-1.6.8-2.8 1-2.8.4 0-.5-1.4-1-3-1h-3.1l.3 14.2.3 14.3 2.8.3 2.7.3v-9.5c0-5.2.4-10.6.9-11.9 1.2-3.2 5.5-4.3 8.7-2.2 2.3 1.5 2.4 2 2.4 12.5v11h7.2l-.4-11.8c-.3-6.4-.9-12.5-1.3-13.5-1.8-4.2-9.7-5.9-14.7-3.1zM5 318.5V341h6v-45H5v22.5zm19-11.4v11.1l3.4 3.4c2.9 2.9 4.1 3.4 8.2 3.4 6.6 0 11-2.7 12.3-7.7.6-2.1 1.1-7.7 1.1-12.6V296h-7v10.3c0 8.8-.3 10.6-1.8 12-2.5 2.3-5.8 2.1-8.2-.3-1.7-1.7-2-3.3-2-12v-10h-6v11.1zm896 25.4V358h6v-9.3c0-11.8 1.1-14.2 6.5-14.2s6.5 2.4 6.5 14.2v9.3h6v-10.4c0-12-1.1-16.1-5.1-18.1-3.6-1.9-6.6-1.9-10.3 0-1.5.8-3 1.5-3.2 1.5-.2 0-.4-5.4-.4-12v-12h-6v25.5zm105-9c0 4.2-.3 5.5-1.5 5.5-.9 0-1.5.9-1.5 2.5s.6 2.5 1.5 2.5c1.3 0 1.5 2 1.5 12v12h5.9l.3-11.8.3-11.7 2.8-.3c2.1-.3 2.7-.9 2.7-2.8 0-2-.5-2.4-3-2.4-3 0-3-.1-3-5.5s0-5.5-3-5.5-3 .1-3 5.5zm-774 5.3c-9.4 4.9-15 12.1-15 19.5 0 4.8 1.5 7.7 10.5 19.7 7.8 10.6 10.1 15.5 9 19.7-1.7 7-9.4 12.3-17.9 12.3-3.7 0-5.2-.5-7.3-2.6-2.1-2.1-2.4-3.1-1.8-5.7.4-1.8.8-4.6.9-6.2.1-2.8-.2-3-3.6-3.3-10.2-.9-10.4 12.4-.3 16.9 6.6 2.9 12.2 3.3 19.6 1.5 12-3.1 18.9-9.8 19.7-19.1.2-3 .2-6.5-.1-7.8-.4-1.2-4.5-7.3-9.2-13.5-9.2-12.2-10-14.1-9.2-20.5 1.1-7.7 10.9-13.5 18.2-10.7 2.8 1.1 2.9 1.5 1 9.1-.8 3.3 1.6 5.9 5.5 5.9s6-2.4 6-6.9c0-2.9-.7-4.4-3.1-6.7-2.8-2.7-3.7-2.9-11.2-3.2-6.3-.2-9 .2-11.7 1.6zm266.7.6C490.1 341 477.6 376.6 495 394c8.8 8.9 19.8 10 33.2 3.3 18.7-9.4 30.6-31.4 26.9-49.4-1.5-7.2-5.9-14.1-11.2-17.6-3.6-2.4-5.4-2.8-12.3-3.1-6.7-.2-9.1.2-13.9 2.2zm21.3 1.5c8.8 6.2 7.8 25.5-2.4 46.8-8.9 18.4-20.3 25.9-31.3 20.7-6.7-3.2-9-10.4-7.2-22.3 2.7-18.3 10.7-35.2 20.1-43 6.3-5.2 15.2-6.1 20.8-2.2zm208.9-2c-14.3 5.6-29.3 22.9-33.3 38.6-2 7.5-2 10.8 0 17.4 3.2 10.8 11.9 16.6 25 16.6 9.3-.1 16.5-3.5 23.4-11.3 2.7-3.1 5-6 5-6.4 0-1.8-2.1-.6-4.2 2.6-3.4 5-11.7 11.5-16.3 12.7-8.8 2.4-17.7-.7-21.2-7.4-2.2-4.2-2-16.2.4-24.6l1.8-6.5 9.5-.1c22.3-.5 40-9.9 40-21.4 0-4.7-2.3-7.9-7.4-10.2-5.4-2.4-16.4-2.5-22.7 0zm18.4 2.3c2.1 2.5 2.2 8.9.2 12.7-4.2 8.2-17.5 15.1-28.9 15.1-7.8 0-8.3-.8-5.2-7.1 7.7-15.3 19.3-24.8 28.6-23.3 1.9.3 4.3 1.4 5.3 2.6z"/>
  <path d="M389.3 328.7c-2.9 1.1-1 2 3.2 1.5 5.4-.6 8.5 1.6 8.5 5.9 0 1.6-3.7 13.3-8.2 26.1-4.5 12.9-8.3 25.6-8.6 28.5-.4 4.5-.1 5.5 2.1 7.6 3.1 3.1 10.1 4.4 15.2 2.7 4.5-1.5 9-5.3 12.1-10.1 2.7-4.3 2.8-4.9 1.4-4.9-.5 0-1 .5-1 1.1 0 1.8-7.2 9.9-10.1 11.5-4.5 2.3-7.8 1.8-9-1.3-1.3-3.5-.9-5.4 7.8-30.2 4.2-11.8 7.8-23.1 8-25.1 1.1-8-5.3-14-14.7-13.9-3 0-6.1.3-6.7.6zm229.9 1.9c-2.9 1.4-8.2 5.6-11.9 9.5-3.7 3.8-7.1 6.9-7.5 6.9-.4 0 .6-3.9 2.3-8.7 1.6-4.8 2.9-8.8 2.9-9 0-.2-5.8-.3-13-.3-13.9 0-18.3 1.7-5.6 2.2l7.3.3-11.8 34c-6.5 18.7-11.9 34.1-11.9 34.2 0 .2 2.4.3 5.4.3 6.2 0 4.6 2.6 13.6-22.5 3.4-9.4 7.6-19.7 9.5-23 7.5-13.3 20.8-24.5 29-24.5 5.2 0 7 1.9 6.8 6.9-.1 2-3.8 13.8-8.2 26.4-9.3 26.2-10.1 29.6-7.6 33.3 3.7 5.7 13.8 6.8 21.2 2.3 3.7-2.3 10.6-11.7 9.6-13.2-.3-.5-1.4.6-2.5 2.5-5.2 8.7-13.5 13.9-17.3 10.8-2.8-2.3-1.5-8.6 6.5-31.4 8.3-23.4 9.2-28.3 6.5-33.5-3.2-6.3-14.3-8-23.3-3.5zm204.9-.4c-13.7 7.3-8.7 28.2 6.7 28.2 9.4 0 15.7-6 15.7-14.9 0-11.9-11.9-18.9-22.4-13.3zm14 6.4c3.5 3.7 3.3 10.8-.5 14.1-3.9 3.3-9 3.1-12.7-.6-3.8-3.9-3.9-8.7-.3-13 3.5-4.2 9.8-4.4 13.5-.5zm29.7-7.1c-1.6.9-2.8 1.1-2.8.5 0-.5-1.6-1-3.5-1H858v29h7v-10.3c0-9.1.3-10.6 2-12.2 1.3-1.2 2.8-1.6 4.8-1.2 2.5.5 3.1.2 4.1-2 .6-1.4 1-2.7.8-2.9-1.2-1.3-6.6-1.2-8.9.1zm24.6.4c-9.9 4.5-11.5 18.9-2.8 25.6 3.4 2.6 9 3.7 13.4 2.5 3.7-1 4-1.3 4-4.7 0-3.5 0-3.5-2.5-1.9-8.1 5.3-18-4-13.3-12.7.6-1.2 1.8-2.7 2.7-3.4 2.3-1.7 8.2-1.6 10.9.3 2.2 1.5 2.2 1.4 2.2-2.1 0-2.9-.5-3.7-2.6-4.5-3.8-1.5-7.4-1.2-12 .9zm72.1-.5c-4.2 1.8-6.2 4.4-7.6 9.6-2.3 8.8 1.9 16.8 10 19 5.2 1.4 10.4.1 14.3-3.6 3.4-3.4 3.5-3.8.3-5.2-2.1-1-2.8-.8-4.9 1.3-3.5 3.5-8.7 3.4-11.5-.1-3.9-4.9-3.1-5.4 8.4-5.4H984v-3.3c0-9.8-10.3-16.3-19.5-12.3zm10.1 5.4c.6.4 1.6 1.7 2.3 2.9 1.2 2.3 1.1 2.3-6.4 2.3-4.1 0-7.5-.3-7.5-.7 0-.4 1-1.7 2.2-3 2.1-2.3 7.1-3.1 9.4-1.5zm25.7-5.8c-2.7 1.1-4.3 4-4.3 7.7 0 3.8.9 4.9 6 7.6 4.9 2.6 6.6 4.7 5.7 7.1-.8 2.1-4.5 2.1-6.9-.1-1.5-1.3-2.3-1.4-4.3-.5-2.5 1.1-2.5 1.3-.9 3.6 2.2 3.5 7.4 5.1 11.9 3.6 4.4-1.5 6.5-4.4 6.5-9.2 0-3.2-.5-4.1-3.7-6.3-2.1-1.4-4.3-2.5-4.9-2.5-1.7 0-4.7-3.7-3.9-4.9.8-1.4 3.8-1.4 5.2 0 .8.8 1.7.7 3.2-.3 2.7-1.7 2.7-2.2-.5-4.7-2.8-2.2-5.5-2.5-9.1-1.1zm51.8.8c-4.5 2.4-7.1 7.4-7.1 13.5 0 7.6 3.7 13 10.2 14.7 4.8 1.4 11.1-.2 14.4-3.5 2.9-3 3-4.1.3-5.6-1.8-.9-2.5-.7-4.8 1.5-2.6 2.5-6.2 3.3-9.6 2-1.4-.6-4.5-5.3-4.5-6.9 0-.3 5-.5 11-.5h11.1l-.7-3.8c-.3-2-1.1-4.8-1.8-6.1-2.8-6.1-12.2-8.8-18.5-5.3zm12.1 5.9c3.6 3.2 2.3 4.3-5.2 4.3-7.4 0-8.4-.8-5.3-4.2 2-2.3 8-2.4 10.5-.1zm29.6-6.1c-1.6.8-2.8 1-2.8.4 0-.5-1.6-1-3.5-1h-3.5v29h7v-10.3c0-9.1.3-10.6 2-12.2 1.4-1.2 2.8-1.6 5-1.2 2.6.6 3.1.3 3.6-1.9 1.1-4.3-2.7-5.6-7.8-2.8zM295 330c0 .6 3 1 7 1 3.9 0 7 .4 7 .8 0 .5-4.3 13.2-9.5 28.2-9.6 27.2-11 33.4-8.6 37.8 1.1 2 6.5 4.2 10.5 4.2 3.5 0 9.4-2.2 12.2-4.6 4.2-3.7 2.1-4.1-2.8-.5-5.1 3.7-8.2 4-10.3.7-2-3.1-2.3-2.1 10.2-37.9 5.6-16.4 10.3-30 10.3-30.3 0-.2-5.8-.4-13-.4-8 0-13 .4-13 1zm50.5 0c-.4.6 2.2 1 6.9 1 4.2 0 7.6.3 7.6.6s-5.2 15.4-11.5 33.6c-6.3 18.2-11.5 33.4-11.5 33.9s2.4.9 5.3.9h5.2l2.9-8.3c8.3-23.6 12.2-33.3 15.9-39.4 4-6.8 12.7-16 18-19.1 2.4-1.5 3.6-3.2 2.1-3.2s-9.5 6.4-14.3 11.4c-2.9 3.1-5.5 5.5-5.8 5.3-.2-.3.8-4 2.2-8.3 1.3-4.4 2.5-8.2 2.5-8.7 0-1.1-24.8-.9-25.5.3zm325.5 0c0 .6 3 1 7 1 3.9 0 7 .3 7 .8 0 .4-4.3 13.1-9.5 28.1-9.6 27.3-11 33.5-8.6 37.9 1.1 2 6.5 4.2 10.5 4.2 6.5 0 14.5-5.4 18.1-12.4 2.4-4.6 1-4.1-2.4.8-3.6 5.2-9.5 9.6-12.8 9.6-3.1 0-5.6-4-4.7-7.6.4-1.6 5.4-16.3 11.1-32.7 5.6-16.4 10.3-30 10.3-30.3 0-.2-5.8-.4-13-.4-8 0-13 .4-13 1z"/>
  <path d="M318.2 388.9c-1.3 2.3-1.9 4.1-1.3 4.1 1.3 0 4.4-5.7 3.9-7.1-.2-.6-1.4.8-2.6 3z"/>
</svg>
