<svg xmlns="http://www.w3.org/2000/svg" viewBox="0 0 207.74552 77.94992">
<g>
<path d="M28.047 21.375C27.094 20.906 26.234 20.719 25.156 20.719 19.844 20.719 19.391 26.922 19.391 30.922 19.391 34.781 20 40.797 25.125 40.797 26.203 40.797 27.125 40.562 28.047 40.016V36.672C27.469 37.094 27.016 37.406 26.203 37.406 23.156 37.406 23.078 32.547 23.078 30.578 23.078 28.5 23.156 24.141 26.281 24.109 27.094 24.141 27.594 24.453 27.969 25.031H28.047ZM28.047 21.375"/>
<path d="M34.289 21.031H30.68V40.484H34.336V28.234C34.336 25.766 35.18 24.266 37.883 24.266L38.492 24.297V20.719C36.492 20.719 35.211 21.719 34.367 23.422H34.289ZM34.289 21.031"/>
<path d="M44.156 28.891C44.156 27.391 44 23.953 46.281 23.953 48.469 23.953 48.469 27.391 48.469 28.891ZM52.172 31.469V30.891C52.172 26.891 51.562 20.719 46.281 20.719 40.922 20.719 40.469 26.922 40.469 30.891 40.469 35.016 40.969 40.797 46.391 40.797 50.484 40.797 52.062 37.516 52.062 33.938H48.703C48.703 35.438 48.359 37.562 46.438 37.562 44.078 37.562 44.156 33.094 44.156 31.469ZM52.172 31.469"/>
<path d="M62.266 21.562C61.219 20.953 60.219 20.719 58.984 20.719 55.906 20.719 53.797 22.953 53.797 26.031 53.797 31.422 59.875 31.656 59.875 35.094 59.875 36.594 59.031 37.562 57.453 37.562 56.219 37.562 55.375 37.062 54.438 36.328V39.875C55.516 40.516 56.328 40.797 57.609 40.797 61.078 40.797 63.188 38.438 63.188 35.016 63.188 29.469 57.188 29.312 57.109 26.031 57.109 24.719 58.219 23.953 59.562 23.953 60.453 23.953 61.578 24.375 62.266 25ZM62.266 21.562"/>
<path d="M73.668 21.375C72.715 20.906 71.855 20.719 70.777 20.719 65.465 20.719 65.012 26.922 65.012 30.922 65.012 34.781 65.621 40.797 70.746 40.797 71.824 40.797 72.746 40.562 73.668 40.016V36.672C73.09 37.094 72.637 37.406 71.824 37.406 68.777 37.406 68.699 32.547 68.699 30.578 68.699 28.5 68.777 24.141 71.902 24.109 72.715 24.141 73.215 24.453 73.59 25.031H73.668ZM73.668 21.375"/>
<path d="M79.41 28.891C79.41 27.391 79.254 23.953 81.535 23.953 83.723 23.953 83.723 27.391 83.723 28.891ZM87.426 31.469V30.891C87.426 26.891 86.816 20.719 81.535 20.719 76.176 20.719 75.723 26.922 75.723 30.891 75.723 35.016 76.223 40.797 81.645 40.797 85.738 40.797 87.316 37.516 87.316 33.938H83.957C83.957 35.438 83.613 37.562 81.691 37.562 79.332 37.562 79.41 33.094 79.41 31.469ZM87.426 31.469"/>
<path d="M93.82 21.031H90.211V40.484H93.82V28.344C93.82 26.688 93.633 23.953 96.023 23.953 97.945 23.953 98.18 25.688 98.18 27.031V40.484H101.805V27.109C101.805 24.141 101.68 20.719 97.836 20.719 96.867 20.719 96.102 20.953 95.445 21.406 94.82 21.828 94.32 22.453 93.898 23.266H93.82ZM93.82 21.031"/>
<path d="M112.816 40.484H116.441V8.5H112.816V23.188H112.738C112.004 21.719 111.129 20.719 109.27 20.719 104.691 20.719 104.582 27.266 104.582 30.5 104.582 33.672 104.645 40.797 109.16 40.797 111.207 40.797 112.004 39.672 112.738 37.984H112.816ZM110.66 37.562C107.973 37.562 108.27 32.359 108.27 30.734 108.27 29.156 107.973 23.953 110.66 23.953 113.098 23.953 112.941 29.188 112.941 30.734 112.941 32.281 113.098 37.562 110.66 37.562ZM110.66 37.562"/>
<path d="M125.352 40.797C130.898 40.797 131.477 34.891 131.477 30.812 131.477 26.578 130.898 20.719 125.352 20.719 119.805 20.719 119.227 26.578 119.227 30.812 119.227 34.891 119.805 40.797 125.352 40.797ZM125.352 37.484C122.57 37.484 122.914 32.203 122.914 30.812 122.914 29.266 122.57 24.031 125.352 24.031 128.117 24.031 127.773 29.266 127.773 30.812 127.773 32.203 128.117 37.484 125.352 37.484ZM125.352 37.484"/>
<path d="M9.391 47.34H8.656V54.027H9.391ZM9.031 45.199C8.734 45.199 8.5 45.434 8.5 45.715 8.5 46.012 8.734 46.23 9.031 46.23 9.312 46.23 9.547 46.012 9.547 45.715 9.547 45.434 9.312 45.199 9.031 45.199ZM9.031 45.199"/>
<path d="M12.449 47.34H11.715V49.809C11.715 50.949 12.137 51.746 13.418 51.746 14.684 51.746 15.105 50.949 15.105 49.809V47.34H14.371V49.73C14.371 50.449 14.293 51.059 13.418 51.059 12.527 51.059 12.449 50.449 12.449 49.73ZM12.449 47.34"/>
<path d="M19.02 47.887C19.926 47.887 20.473 48.59 20.473 49.434 20.473 50.309 19.973 51.059 19.035 51.059 18.129 51.059 17.629 50.277 17.629 49.434 17.629 48.621 18.176 47.887 19.02 47.887ZM21.16 47.34H20.426V47.949H20.41C20.066 47.48 19.551 47.215 18.957 47.215 17.676 47.215 16.879 48.293 16.879 49.496 16.879 50.684 17.676 51.746 18.926 51.746 19.504 51.746 20.066 51.48 20.41 51.027H20.426V51.543C20.426 52.512 20.191 53.34 19.051 53.34 18.27 53.34 17.691 52.84 17.676 52.043H16.957C16.988 53.262 17.863 54.012 19.066 54.012 19.707 54.012 20.316 53.762 20.723 53.262 21.16 52.684 21.16 52.09 21.16 51.418ZM21.16 47.34"/>
<path d="M27.164 49.637C27.242 48.355 26.508 47.215 25.133 47.215 23.789 47.215 23.055 48.262 23.055 49.527 23.055 50.762 23.867 51.746 25.148 51.746 26.023 51.746 26.727 51.309 27.133 50.543L26.508 50.184C26.227 50.684 25.82 51.059 25.211 51.059 24.383 51.059 23.805 50.418 23.805 49.637ZM23.836 49.012C23.93 48.387 24.508 47.887 25.148 47.887 25.773 47.887 26.305 48.387 26.398 49.012ZM23.836 49.012"/>
<path d="M29.754 47.34H29.02V51.621H29.754V49.59C29.754 48.824 29.816 47.887 30.816 47.887 31.676 47.887 31.723 48.512 31.723 49.199V51.621H32.457V49.074C32.457 48.074 32.176 47.215 31.004 47.215 30.473 47.215 30.082 47.449 29.77 47.855H29.754ZM29.754 47.34"/>
<path d="M36.469 47.887C37.375 47.887 37.922 48.59 37.922 49.434 37.922 50.309 37.422 51.059 36.484 51.059 35.562 51.059 35.078 50.277 35.078 49.434 35.078 48.621 35.625 47.887 36.469 47.887ZM37.875 51.621H38.609V44.09H37.875V47.949H37.859C37.516 47.48 36.969 47.215 36.391 47.215 35.109 47.215 34.328 48.262 34.328 49.48 34.328 50.668 35.125 51.746 36.375 51.746 36.969 51.746 37.5 51.496 37.859 51.027H37.875ZM37.875 51.621"/>
<path d="M134.457 57.684C135.707 57.684 136.707 56.684 136.707 55.418 136.707 54.168 135.723 53.152 134.457 53.152 133.207 53.152 132.207 54.168 132.207 55.418 132.207 56.684 133.207 57.684 134.457 57.684ZM134.457 53.824C135.363 53.824 135.988 54.543 135.988 55.418 135.988 56.293 135.363 56.996 134.457 56.996 133.551 56.996 132.941 56.293 132.941 55.418 132.941 54.543 133.551 53.824 134.457 53.824ZM134.457 53.824"/>
<path d="M139.266 53.277H138.531V57.559H139.266V55.418C139.266 54.855 139.297 53.824 140.094 53.824 140.297 53.824 140.391 53.918 140.547 54.012L140.891 53.355C140.672 53.23 140.469 53.152 140.234 53.152 139.75 53.152 139.531 53.402 139.281 53.73H139.266ZM139.266 53.277"/>
<path d="M145.66 53.574C145.285 53.309 144.801 53.152 144.348 53.152 143.082 53.152 142.051 54.137 142.051 55.418 142.051 56.715 143.035 57.684 144.332 57.684 144.848 57.684 145.27 57.527 145.691 57.246V56.262H145.676C145.316 56.73 144.895 56.996 144.27 56.996 143.379 56.996 142.801 56.262 142.801 55.418 142.801 54.559 143.426 53.824 144.316 53.824 144.895 53.824 145.301 54.121 145.645 54.543H145.66ZM145.66 53.574"/>
<path d="M147.668 50.027V57.559H148.402V55.527C148.402 54.762 148.465 53.824 149.465 53.824 150.324 53.824 150.371 54.449 150.371 55.137V57.559H151.105V55.012C151.105 54.012 150.824 53.152 149.652 53.152 149.121 53.152 148.73 53.387 148.418 53.793L148.402 53.777V50.027ZM147.668 50.027"/>
<path d="M157.074 55.574C157.152 54.293 156.418 53.152 155.043 53.152 153.699 53.152 152.965 54.199 152.965 55.465 152.965 56.699 153.777 57.684 155.059 57.684 155.934 57.684 156.637 57.246 157.043 56.48L156.418 56.121C156.137 56.621 155.73 56.996 155.121 56.996 154.293 56.996 153.715 56.355 153.715 55.574ZM153.746 54.949C153.84 54.324 154.418 53.824 155.059 53.824 155.684 53.824 156.215 54.324 156.309 54.949ZM153.746 54.949"/>
<path d="M161.27 53.949C161.082 53.496 160.629 53.152 160.129 53.152 159.441 53.152 158.863 53.637 158.863 54.371 158.863 55.715 160.801 55.387 160.801 56.34 160.801 56.73 160.488 56.996 160.098 56.996 159.613 56.996 159.41 56.715 159.223 56.324L158.582 56.59C158.801 57.262 159.363 57.684 160.098 57.684 160.879 57.684 161.535 57.09 161.535 56.277 161.535 55.559 161.051 55.262 160.551 55.043 160.051 54.84 159.551 54.699 159.551 54.309 159.551 54.027 159.832 53.824 160.082 53.824 160.348 53.824 160.566 54.043 160.66 54.262ZM161.27 53.949"/>
<path d="M164.188 53.949H164.953V53.277H164.188V51.73H163.469V53.277H163.016V53.949H163.469V57.559H164.188ZM164.188 53.949"/>
<path d="M170.199 55.574C170.277 54.293 169.543 53.152 168.168 53.152 166.824 53.152 166.09 54.199 166.09 55.465 166.09 56.699 166.902 57.684 168.184 57.684 169.059 57.684 169.762 57.246 170.168 56.48L169.543 56.121C169.262 56.621 168.855 56.996 168.246 56.996 167.418 56.996 166.84 56.355 166.84 55.574ZM166.871 54.949C166.965 54.324 167.543 53.824 168.184 53.824 168.809 53.824 169.34 54.324 169.434 54.949ZM166.871 54.949"/>
<path d="M172.754 53.277H172.02V57.559H172.754V55.418C172.754 54.855 172.785 53.824 173.582 53.824 173.785 53.824 173.879 53.918 174.035 54.012L174.379 53.355C174.16 53.23 173.957 53.152 173.723 53.152 173.238 53.152 173.02 53.402 172.77 53.73H172.754ZM172.754 53.277"/>
<path d="M47.289 58.793C47.805 59.465 48.008 59.98 48.008 60.652 48.008 61.605 47.008 62.793 45.305 62.793 44.445 62.793 43.852 62.512 43.852 61.684 43.852 61.277 44.102 60.934 44.102 60.527 44.102 60.215 43.789 59.949 43.492 59.949 42.68 59.949 42.133 60.371 42.133 61.137 42.133 62.434 43.648 63.168 45.227 63.168 47.008 63.168 49.617 61.949 49.617 59.621 49.617 59.027 49.492 58.449 49.07 57.934L47.555 55.949C46.93 55.121 46.57 54.574 46.57 53.902 46.57 52.84 47.32 51.746 48.977 51.746 49.57 51.746 49.852 52.012 49.852 52.418 49.852 52.762 49.508 52.918 49.508 53.387 49.508 53.902 49.93 54.184 50.414 54.184 51.086 54.184 51.477 53.793 51.477 53.09 51.477 52.105 50.523 51.387 49.07 51.387 46.664 51.387 44.961 53.246 44.961 54.855 44.961 55.793 45.477 56.402 45.992 57.074ZM47.289 58.793"/>
<path d="M53.238 59.668C53.035 60.23 52.77 61.012 52.77 61.605 52.77 62.699 53.504 63.168 54.629 63.168 56.738 63.168 57.582 61.137 57.863 60.605L57.566 60.465C57.301 61.059 56.238 62.793 55.098 62.793 54.613 62.793 54.379 62.465 54.379 62.043 54.379 61.59 54.582 61.012 54.77 60.496L57.816 51.73H53.707L53.598 52.09H55.91ZM57.504 45.621C57.504 46.293 58.051 46.84 58.723 46.84 59.395 46.84 59.941 46.293 59.941 45.621 59.941 44.949 59.395 44.402 58.723 44.402 58.051 44.402 57.504 44.949 57.504 45.621ZM57.504 45.621"/>
<path d="M59.492 62.824H61.305L63.242 57.418C64.367 54.309 67.023 51.934 68.555 51.934 69.305 51.934 69.57 52.449 69.57 52.887 69.57 53.199 69.508 53.48 69.352 53.918L67.18 60.105C67.008 60.652 66.867 61.137 66.867 61.59 66.867 62.699 67.727 63.168 68.836 63.168 70.852 63.168 71.68 61.277 72.023 60.605L71.742 60.465C71.367 61.246 70.477 62.793 69.258 62.793 68.711 62.793 68.586 62.387 68.586 61.965 68.586 61.434 68.789 60.824 68.992 60.262L70.68 55.48C70.961 54.699 71.164 54.184 71.164 53.59 71.164 52.449 70.242 51.574 68.82 51.574 67.383 51.574 65.727 52.715 64.07 54.902H64.023L65.086 51.73H60.992L60.898 52.09H63.242ZM59.492 62.824"/>
<path d="M74.965 51.73 74.871 52.09H77.324L74.48 62.777C73.293 67.199 71.918 69.09 70.465 69.09 70.027 69.09 69.699 68.887 69.699 68.434 69.699 67.949 69.949 67.59 69.949 67.199 69.949 66.652 69.637 66.527 69.199 66.527 68.371 66.527 67.98 67.09 67.98 67.746 67.98 69.105 69.23 69.449 70.105 69.449 73.152 69.449 75.637 65.355 76.84 60.855L79.137 52.09H82.324L82.418 51.73H79.246L79.777 49.762C80.277 48.027 81.809 43.527 84.902 43.527 85.418 43.527 85.887 43.684 85.887 44.246 85.887 44.793 85.262 45.027 85.262 45.746 85.262 46.137 85.574 46.465 86.324 46.465 87.215 46.465 87.496 45.746 87.496 45.152 87.496 44.324 86.746 43.152 84.98 43.152 82.012 43.152 78.902 46.309 77.824 50.293L77.434 51.73ZM74.965 51.73"/>
<path d="M82.113 58.762C82.113 61.059 83.691 63.168 86.145 63.168 89.066 63.168 92.91 59.746 92.91 55.793 92.91 53.871 91.66 51.387 88.941 51.387 85.91 51.387 82.113 54.59 82.113 58.762ZM83.816 60.215C83.816 57.496 85.754 51.746 88.816 51.746 90.52 51.746 91.191 52.809 91.191 54.434 91.191 56.559 89.332 62.793 86.066 62.793 84.754 62.793 83.816 61.965 83.816 60.215ZM83.816 60.215"/>
<path d="M94.449 62.824H96.262L98.199 57.418C99.324 54.309 101.98 51.934 103.512 51.934 104.262 51.934 104.527 52.449 104.527 52.887 104.527 53.199 104.465 53.48 104.309 53.918L102.137 60.105C101.965 60.652 101.824 61.137 101.824 61.59 101.824 62.699 102.684 63.168 103.793 63.168 105.809 63.168 106.637 61.277 106.98 60.605L106.699 60.465C106.324 61.246 105.434 62.793 104.215 62.793 103.668 62.793 103.543 62.387 103.543 61.965 103.543 61.434 103.746 60.824 103.949 60.262L105.637 55.48C105.918 54.699 106.121 54.184 106.121 53.59 106.121 52.449 105.199 51.574 103.777 51.574 102.34 51.574 100.684 52.715 99.027 54.902H98.98L100.043 51.73H95.949L95.855 52.09H98.199ZM94.449 62.824"/>
<path d="M109.281 59.668C109.078 60.23 108.812 61.012 108.812 61.605 108.812 62.699 109.547 63.168 110.672 63.168 112.781 63.168 113.625 61.137 113.906 60.605L113.609 60.465C113.344 61.059 112.281 62.793 111.141 62.793 110.656 62.793 110.422 62.465 110.422 62.043 110.422 61.59 110.625 61.012 110.812 60.496L113.859 51.73H109.75L109.641 52.09H111.953ZM113.547 45.621C113.547 46.293 114.094 46.84 114.766 46.84 115.438 46.84 115.984 46.293 115.984 45.621 115.984 44.949 115.438 44.402 114.766 44.402 114.094 44.402 113.547 44.949 113.547 45.621ZM113.547 45.621"/>
<path d="M123.973 60.105C123.457 60.809 122.238 62.793 120.066 62.793 118.598 62.793 117.504 61.887 117.504 60.027 117.504 58.84 117.816 57.746 118.176 56.668 118.598 56.746 119.16 56.762 119.754 56.762 120.816 56.762 125.832 56.121 125.832 53.324 125.832 51.98 124.332 51.387 122.941 51.387 119.363 51.387 115.691 55.809 115.691 59.246 115.691 60.934 116.785 63.168 119.738 63.168 122.676 63.168 123.926 60.777 124.285 60.293ZM124.238 52.996C124.238 54.809 122.082 56.402 119.629 56.402 119.16 56.402 118.754 56.355 118.316 56.309 118.926 54.512 120.691 51.746 122.895 51.746 123.848 51.746 124.238 52.324 124.238 52.996ZM124.238 52.996"/>
<path d="M113.551 45.629C113.551 46.301 114.098 46.848 114.77 46.848 115.441 46.848 115.988 46.301 115.988 45.629 115.988 44.957 115.441 44.41 114.77 44.41 114.098 44.41 113.551 44.957 113.551 45.629ZM113.551 45.629"/>
<path d="M121.121 45.629C121.121 46.301 121.668 46.848 122.34 46.848 123.012 46.848 123.559 46.301 123.559 45.629 123.559 44.957 123.012 44.41 122.34 44.41 121.668 44.41 121.121 44.957 121.121 45.629ZM121.121 45.629"/>
<path d="M128.691 45.629C128.691 46.301 129.238 46.848 129.91 46.848 130.582 46.848 131.129 46.301 131.129 45.629 131.129 44.957 130.582 44.41 129.91 44.41 129.238 44.41 128.691 44.957 128.691 45.629ZM128.691 45.629"/>
<path d="M136.258 45.629C136.258 46.301 136.805 46.848 137.477 46.848 138.148 46.848 138.695 46.301 138.695 45.629 138.695 44.957 138.148 44.41 137.477 44.41 136.805 44.41 136.258 44.957 136.258 45.629ZM136.258 45.629"/>
<path d="M143.828 45.629C143.828 46.301 144.375 46.848 145.047 46.848 145.719 46.848 146.266 46.301 146.266 45.629 146.266 44.957 145.719 44.41 145.047 44.41 144.375 44.41 143.828 44.957 143.828 45.629ZM143.828 45.629"/>
<path d="M151.398 45.629C151.398 46.301 151.945 46.848 152.617 46.848 153.289 46.848 153.836 46.301 153.836 45.629 153.836 44.957 153.289 44.41 152.617 44.41 151.945 44.41 151.398 44.957 151.398 45.629ZM151.398 45.629"/>
<path d="M158.965 45.629C158.965 46.301 159.512 46.848 160.184 46.848 160.855 46.848 161.402 46.301 161.402 45.629 161.402 44.957 160.855 44.41 160.184 44.41 159.512 44.41 158.965 44.957 158.965 45.629ZM158.965 45.629"/>
<path d="M166.535 45.629C166.535 46.301 167.082 46.848 167.754 46.848 168.426 46.848 168.973 46.301 168.973 45.629 168.973 44.957 168.426 44.41 167.754 44.41 167.082 44.41 166.535 44.957 166.535 45.629ZM166.535 45.629"/>
<path d="M174.102 45.629C174.102 46.301 174.648 46.848 175.32 46.848 175.992 46.848 176.539 46.301 176.539 45.629 176.539 44.957 175.992 44.41 175.32 44.41 174.648 44.41 174.102 44.957 174.102 45.629ZM174.102 45.629"/>
<path d="M181.672 45.629C181.672 46.301 182.219 46.848 182.891 46.848 183.562 46.848 184.109 46.301 184.109 45.629 184.109 44.957 183.562 44.41 182.891 44.41 182.219 44.41 181.672 44.957 181.672 45.629ZM181.672 45.629"/>
<path d="M189.242 45.629C189.242 46.301 189.789 46.848 190.461 46.848 191.133 46.848 191.68 46.301 191.68 45.629 191.68 44.957 191.133 44.41 190.461 44.41 189.789 44.41 189.242 44.957 189.242 45.629ZM189.242 45.629"/>
<path d="M196.809 45.629C196.809 46.301 197.355 46.848 198.027 46.848 198.699 46.848 199.246 46.301 199.246 45.629 199.246 44.957 198.699 44.41 198.027 44.41 197.355 44.41 196.809 44.957 196.809 45.629ZM196.809 45.629"/>
</g>
</svg>
